<?xml version="1.0" standalone="no"?>
<!DOCTYPE svg PUBLIC "-//W3C//DTD SVG 20010904//EN"
 "http://www.w3.org/TR/2001/REC-SVG-20010904/DTD/svg10.dtd">
<svg version="1.0" xmlns="http://www.w3.org/2000/svg"
 width="500.000000pt" height="500.000000pt" viewBox="0 0 500.000000 500.000000"
 preserveAspectRatio="xMidYMid meet">
<metadata>
Created by potrace 1.14, written by Peter Selinger 2001-2017
</metadata>
<g transform="translate(0.000000,500.000000) scale(0.100000,-0.100000)"
fill="#000000" stroke="none">
<path d="M2230 3850 c-4 -3 -33 -66 -65 -140 -31 -74 -63 -148 -70 -165 -8
-16 -25 -57 -38 -90 l-25 -60 -237 -1 -236 -1 -19 36 c-42 83 -137 133 -242
127 -74 -3 -126 -27 -181 -83 -60 -59 -80 -107 -81 -188 0 -110 54 -194 160
-246 58 -29 71 -31 131 -27 41 3 85 13 109 26 42 22 98 78 116 117 10 23 12
23 199 23 214 0 196 12 147 -98 -14 -30 -37 -85 -53 -121 l-27 -67 -628 0
-627 0 -34 51 c-21 31 -54 64 -83 82 -44 27 -58 30 -130 30 -97 0 -140 -18
-206 -85 -107 -110 -104 -266 7 -376 70 -69 160 -95 255 -74 68 14 121 51 160
112 l31 48 583 0 583 0 -25 -57 c-30 -69 -42 -95 -81 -188 l-29 -69 -213 -1
c-116 0 -215 2 -219 5 -4 3 -16 21 -27 40 -67 121 -254 159 -373 77 -88 -61
-127 -133 -127 -232 1 -81 22 -130 82 -188 61 -60 116 -82 198 -80 39 0 86 8
105 16 42 18 104 76 125 117 l16 30 169 0 c94 0 170 -1 170 -2 0 -2 -29 -70
-64 -153 l-64 -150 -380 -3 -380 -2 -21 34 c-26 41 -78 89 -124 112 -51 27
-170 25 -229 -4 -90 -45 -147 -124 -155 -221 -11 -117 43 -215 147 -269 60
-31 71 -34 135 -30 39 3 87 13 108 23 42 20 113 87 122 116 4 11 9 20 13 20
39 7 662 2 662 -5 0 -9 -109 -274 -165 -400 -14 -32 -24 -60 -22 -63 4 -3 463
-6 584 -4 24 1 33 7 39 24 4 12 48 123 99 247 51 124 132 322 180 440 48 118
93 229 100 245 7 17 34 84 60 150 66 168 184 454 201 489 8 16 14 33 14 38 0
5 9 28 19 52 11 23 30 67 41 97 12 30 27 68 35 84 7 17 18 45 25 63 7 17 15
32 19 32 4 0 35 -71 70 -157 35 -87 72 -176 82 -198 9 -22 60 -146 112 -275
108 -267 375 -925 474 -1167 l66 -163 41 0 c209 -3 568 -1 572 2 4 4 -24 76
-56 143 -7 16 -117 274 -136 320 -3 7 111 10 331 10 294 0 336 -2 340 -15 11
-34 87 -102 140 -126 47 -22 67 -26 123 -22 79 5 128 26 181 80 110 110 102
293 -16 398 -129 113 -341 76 -419 -73 l-15 -27 -379 0 -380 0 -24 53 c-28 61
-106 248 -106 253 0 2 76 4 170 4 165 0 170 -1 181 -22 50 -96 125 -141 234
-141 87 -1 146 26 205 89 106 116 102 265 -11 375 -56 55 -118 79 -198 78 -94
-1 -159 -35 -213 -113 l-36 -52 -209 1 c-114 0 -214 4 -220 8 -7 5 -13 16 -13
26 0 9 -4 21 -8 27 -5 5 -16 27 -25 49 -8 22 -31 77 -51 123 l-35 82 583 0
584 0 26 -44 c51 -87 154 -135 258 -122 150 20 264 164 244 308 -13 96 -107
202 -203 228 -56 16 -149 8 -199 -18 -43 -22 -82 -61 -109 -108 l-18 -31 -627
-1 -628 0 -60 139 c-33 76 -57 141 -54 143 4 2 89 3 188 3 179 0 182 0 192
-22 18 -39 74 -95 116 -117 58 -30 157 -35 218 -11 59 23 130 87 159 145 49
93 25 219 -58 301 -127 127 -340 106 -424 -42 l-21 -38 -234 -2 -235 -1 -15
37 c-9 21 -22 52 -29 68 -8 17 -26 59 -40 95 -15 36 -37 88 -49 115 -13 28
-31 71 -42 97 -13 34 -25 48 -39 49 -119 3 -519 3 -525 -1z m-837 -502 c39
-52 19 -131 -41 -162 -38 -20 -78 -9 -118 31 -58 58 -42 127 39 163 34 16 46
17 71 6 16 -6 38 -23 49 -38z m2392 -18 c20 -39 19 -58 -5 -98 -18 -30 -48
-48 -91 -57 -27 -6 -79 33 -95 71 -25 60 8 125 72 143 38 11 98 -19 119 -59z
m-3404 -466 c22 -20 37 -69 31 -102 -3 -13 -18 -37 -35 -54 -28 -27 -35 -30
-76 -25 -36 4 -52 12 -72 37 -36 43 -40 63 -20 102 25 50 73 78 117 68 19 -5
44 -16 55 -26z m4346 21 c34 -10 73 -62 73 -98 -1 -37 -15 -59 -60 -92 -27
-20 -36 -21 -71 -13 -66 17 -100 84 -74 146 15 34 71 74 95 68 8 -3 25 -7 37
-11z m-3767 -536 c36 -20 44 -34 55 -90 5 -26 -26 -79 -56 -95 -50 -26 -93
-15 -136 35 -42 48 -25 112 41 152 39 24 50 24 96 -2z m3177 3 c35 -19 63 -62
63 -96 -1 -34 -11 -51 -54 -84 -96 -74 -216 67 -133 157 37 39 78 47 124 23z
m-3701 -547 c49 -57 28 -142 -41 -171 -69 -28 -150 27 -147 101 3 68 50 108
121 101 32 -3 50 -11 67 -31z m4263 21 c52 -27 68 -112 31 -159 -43 -54 -137
-52 -173 5 -64 98 37 208 142 154z"/>
</g>
</svg>
